<?xml version="1.0" encoding="utf-8"?>
<!-- Generated by IcoMoon.io -->
<!DOCTYPE svg PUBLIC "-//W3C//DTD SVG 1.1//EN" "http://www.w3.org/Graphics/SVG/1.1/DTD/svg11.dtd">
<svg version="1.1" xmlns="http://www.w3.org/2000/svg" xmlns:xlink="http://www.w3.org/1999/xlink" width="32" height="32" viewBox="0 0 32 32">
<path d="M16 25.313c2.938 0 5.563-1.375 7.25-3.5l3.5 2.063c-2.438 3.313-6.313 5.438-10.75 5.438-7.375 0-13.313-5.938-13.313-13.313 0-6.938 5.25-12.563 12-13.25v4c-4.5 0.625-8 4.563-8 9.25 0 5.188 4.125 9.313 9.313 9.313zM17.313 2.75c6.75 0.688 12 6.313 12 13.25 0 1.938-0.375 3.813-1.125 5.438l-3.5-2.063c0.375-1.063 0.625-2.188 0.625-3.375 0-4.688-3.5-8.625-8-9.25v-4z"></path>
</svg>
