<?xml version="1.0" encoding="utf-8"?>
<!-- Generated by IcoMoon.io -->
<!DOCTYPE svg PUBLIC "-//W3C//DTD SVG 1.1//EN" "http://www.w3.org/Graphics/SVG/1.1/DTD/svg11.dtd">
<svg version="1.1" xmlns="http://www.w3.org/2000/svg" xmlns:xlink="http://www.w3.org/1999/xlink" width="32" height="32" viewBox="0 0 32 32">
<path d="M31.938 12.125c0.063 0.063 0.063 0.25 0 0.313l-1.563 2c-0.063 0.063-0.188 0.125-0.25 0.125l-0.938-0.188-0.438 1.375c-0.188 0.313-0.625 0.313-0.813 0l-0.875-1.875-1.438-0.313-2.938 7 1.063 8.5c0 0.188-0.125 0.25-0.25 0.25h-1.25c-0.125 0-0.188-0.063-0.25-0.188l-1.25-5.063-0.625-1.063-1.563 6.125c0 0.125-0.125 0.188-0.25 0.188h-1.313c-0.125 0-0.25-0.125-0.25-0.25l1.438-8.438h-8.438l-2.188 4.125 0.5 4.25c0.063 0.188-0.063 0.313-0.25 0.313h-1.25c-0.063 0-0.188 0-0.25-0.125l-1.75-6.375-2.125 2.438 0.375 3.75c0.063 0.188-0.063 0.313-0.25 0.313h-1.375c-0.125 0-0.25-0.063-0.25-0.125l-0.813-3.5 1.313-5.125v-9s-1.438-0.563-1.438-1.875h17.125c0 0 3 0.063 5.938-2.063 0 0-0.5-1.375 0.375-2.25 0 0 1.75 1.25 2.25 1.563 0.625 0.375 1.063-0.313 0.875-0.875-0.125-0.375-0.563-1.75-2.813-2.625-0.286-0.095-0.951-0.148-0.813-0.563 0-0.125 0.125-0.188 0.25-0.188 2.75 0.375 4.375 2.625 4.813 3.625 0.063 0.125 1.25 0.938 1.125 2.375 0 0.188 0 0.313 0.125 0.438z"></path>
</svg>
