<?xml version="1.0" encoding="utf-8"?>
<!-- Generated by IcoMoon.io -->
<!DOCTYPE svg PUBLIC "-//W3C//DTD SVG 1.1//EN" "http://www.w3.org/Graphics/SVG/1.1/DTD/svg11.dtd">
<svg version="1.1" xmlns="http://www.w3.org/2000/svg" xmlns:xlink="http://www.w3.org/1999/xlink" width="32" height="32" viewBox="0 0 32 32">
<path d="M16 20.688c2.563 0 4.688-2.125 4.688-4.688s-2.125-4.688-4.688-4.688-4.688 2.125-4.688 4.688 2.125 4.688 4.688 4.688zM25.937 17.312l2.812 2.188c0.251 0.188 0.312 0.563 0.125 0.875l-2.688 4.625c-0.188 0.312-0.5 0.375-0.812 0.251l-3.312-1.312c-0.688 0.5-1.437 1-2.251 1.312l-0.5 3.5c-0.063 0.312-0.312 0.563-0.625 0.563h-5.375c-0.312 0-0.563-0.251-0.625-0.563l-0.5-3.5c-0.812-0.312-1.563-0.751-2.251-1.312l-3.312 1.312c-0.312 0.125-0.625 0.063-0.812-0.251l-2.688-4.625c-0.188-0.312-0.125-0.688 0.125-0.875l2.812-2.188c-0.063-0.437-0.063-0.875-0.063-1.312s0-0.875 0.063-1.312l-2.812-2.188c-0.251-0.188-0.312-0.563-0.125-0.875l2.688-4.625c0.188-0.312 0.5-0.375 0.812-0.251l3.312 1.312c0.688-0.5 1.437-1 2.251-1.312l0.5-3.5c0.063-0.312 0.312-0.563 0.625-0.563h5.375c0.312 0 0.563 0.251 0.625 0.563l0.5 3.5c0.812 0.312 1.563 0.751 2.251 1.312l3.312-1.312c0.312-0.125 0.625-0.063 0.812 0.251l2.688 4.625c0.188 0.312 0.125 0.688-0.125 0.875l-2.812 2.188c0.063 0.437 0.063 0.875 0.063 1.312s0 0.875-0.063 1.312z"></path>
</svg>
