<?xml version="1.0" encoding="utf-8"?>
<!-- Generated by IcoMoon.io -->
<!DOCTYPE svg PUBLIC "-//W3C//DTD SVG 1.1//EN" "http://www.w3.org/Graphics/SVG/1.1/DTD/svg11.dtd">
<svg version="1.1" xmlns="http://www.w3.org/2000/svg" xmlns:xlink="http://www.w3.org/1999/xlink" width="32" height="32" viewBox="0 0 32 32">
<path d="M16 26.688c5.188 0 9.313-4.188 9.313-9.375s-4.125-9.313-9.313-9.313-9.313 4.125-9.313 9.313 4.125 9.375 9.313 9.375zM25.375 9.875c1.625 2.063 2.625 4.625 2.625 7.438 0 6.625-5.375 12-12 12s-12-5.375-12-12 5.375-12 12-12c2.813 0 5.438 1.063 7.5 2.688l1.875-1.938c0.688 0.563 1.313 1.188 1.875 1.875zM14.688 18.688v-8h2.625v8h-2.625zM20 1.313v2.688h-8v-2.688h8z"></path>
</svg>
